<?xml version="1.0" encoding="UTF-8"?>
<!DOCTYPE svg PUBLIC "-//W3C//DTD SVG 1.1//EN" "http://www.w3.org/Graphics/SVG/1.1/DTD/svg11.dtd">
<svg version="1.1" xmlns="http://www.w3.org/2000/svg" xmlns:xlink="http://www.w3.org/1999/xlink" x="0" y="0" width="951.724" height="527" viewBox="0, 0, 951.724, 527" style="">
  <g id="Layer_1">
    <g>
      <path d="M124.225,94.601 L513.224,94.601 L513.224,436.601 L124.225,436.601 L124.225,94.601 z" fill="#E6E6E6"/>
      <path d="M124.225,94.601 L513.224,94.601 L513.224,436.601 L124.225,436.601 L124.225,94.601 z" fill-opacity="0" stroke="#000000" stroke-width="2"/>
    </g>
    <g>
      <path d="M587.224,94.601 L947.224,94.601 L947.224,436.601 L587.224,436.601 L587.224,94.601 z" fill="#E6E6E6"/>
      <path d="M587.224,94.601 L947.224,94.601 L947.224,436.601 L587.224,436.601 L587.224,94.601 z" fill-opacity="0" stroke="#000000" stroke-width="2"/>
    </g>
    <text transform="matrix(1, 0, 0, 1, 334.713, 75.434)">
      <tspan x="-131.145" y="4.465" font-family="Avenir-Medium" font-size="30" fill="#656565">Oscilloscope Probe</tspan>
    </text>
    <text transform="matrix(1, 0, 0, 1, 750.242, 77.768)">
      <tspan x="-86.385" y="9" font-family="Avenir-Medium" font-size="30" fill="#656565">Oscilloscope</tspan>
    </text>
    <text transform="matrix(1, 0, 0, 1, 366.292, 150.934)">
      <tspan x="-31.56" y="5.333" font-family="Avenir-Medium" font-size="24" fill="#656565">Cable</tspan>
    </text>
    <text transform="matrix(1, 0, 0, 1, 97.349, 36.5)">
      <tspan x="-95.604" y="-12.5" font-family="Avenir-Medium" font-size="24" fill="#656565">LF Compensation </tspan>
      <tspan x="-60.888" y="20.5" font-family="Avenir-Medium" font-size="24" fill="#656565">adjustment</tspan>
    </text>
    <text transform="matrix(1, 0, 0, 1, 600.531, 505)">
      <tspan x="-98.268" y="2" font-family="Avenir-Medium" font-size="24" fill="#656565">HF Compensation </tspan>
    </text>
    <text transform="matrix(1, 0, 0, 1, 75.376, 345.973)">
      <tspan x="-29.112" y="-9" font-family="Avenir-Medium" font-size="24" fill="#656565">Earth </tspan>
      <tspan x="-18.876" y="24" font-family="Avenir-Medium" font-size="24" fill="#656565">clip</tspan>
    </text>
    <text transform="matrix(1, 0, 0, 1, 826.106, 286.61)">
      <tspan x="-28.452" y="-9.5" font-family="Avenir-Medium" font-size="24" fill="#656565">Input </tspan>
      <tspan x="-64.032" y="23.5" font-family="Avenir-Medium" font-size="24" fill="#656565">capacitance</tspan>
    </text>
    <text transform="matrix(1, 0, 0, 1, 620.735, 285.379)">
      <tspan x="-17.544" y="6.431" font-family="Avenir-Medium" font-size="24" fill="#656565">1M</tspan>
    </text>
    <text transform="matrix(1, 0, 0, 1, 227.879, 215.105)">
      <tspan x="-17.544" y="6.431" font-family="Avenir-Medium" font-size="24" fill="#656565">9M</tspan>
    </text>
    <g>
      <path d="M72.714,182.601 L331.507,182.601" fill-opacity="0" stroke="#000000" stroke-width="3"/>
      <path d="M72.714,182.601 L75.514,178.401 L64.314,182.601 L75.514,186.801 z" fill="#000000" fill-opacity="1" stroke="#000000" stroke-width="3" stroke-opacity="1"/>
    </g>
    <g>
      <path d="M67.669,303.449 L128.269,303.449" fill-opacity="0" stroke="#000000" stroke-width="3"/>
      <path d="M67.669,303.449 L70.469,299.249 L59.269,303.449 L70.469,307.649 z" fill="#000000" fill-opacity="1" stroke="#000000" stroke-width="3" stroke-opacity="1"/>
    </g>
    <path d="M333.757,182.601 L436.257,182.601" fill-opacity="0" stroke="#000000" stroke-width="3" stroke-dasharray="9,6"/>
    <g>
      <path d="M742.757,182.601 L831.657,182.601" fill-opacity="0" stroke="#000000" stroke-width="3" stroke-dasharray="9,6"/>
      <path d="M831.657,186.801 L842.857,182.601 L831.657,178.401 z" fill="#000000" fill-opacity="1" stroke="#000000" stroke-width="3" stroke-opacity="1"/>
    </g>
    <g>
      <path d="M745.257,384.449 L834.157,384.449" fill-opacity="0" stroke="#000000" stroke-width="3" stroke-dasharray="9,6"/>
      <path d="M834.157,388.649 L845.357,384.449 L834.157,380.249 z" fill="#000000" fill-opacity="1" stroke="#000000" stroke-width="3" stroke-opacity="1"/>
    </g>
    <path d="M417.912,182.601 L512.878,182.601" fill-opacity="0" stroke="#000000" stroke-width="3"/>
    <path d="M588.053,182.601 L769.991,182.601" fill-opacity="0" stroke="#000000" stroke-width="3"/>
    <path d="M573.783,170.101 C591.705,170.101 591.705,194.416 573.783,195.101" fill-opacity="0" stroke="#000000" stroke-width="3"/>
    <path d="M573.783,371.949 C591.705,371.949 591.705,396.264 573.783,396.949" fill-opacity="0" stroke="#000000" stroke-width="3"/>
    <path d="M322.102,198.101 C317.475,198.101 313.724,191.161 313.724,182.601 C313.724,174.041 317.475,167.101 322.102,167.101 C326.729,167.101 330.48,174.041 330.48,182.601 C330.48,191.161 326.729,198.101 322.102,198.101 z" fill-opacity="0" stroke="#000000" stroke-width="3"/>
    <path d="M410.378,198.101 C409.661,198.067 410.088,198.107 409.102,197.922" fill-opacity="0" stroke="#000000" stroke-width="3"/>
    <path d="M409.102,167.121 L409.533,167.101 C414.16,167.101 417.912,174.041 417.912,182.601 C417.912,191.161 414.16,198.101 409.533,198.101" fill-opacity="0" stroke="#000000" stroke-width="3"/>
    <path d="M322.102,198.101 L409.102,198.101" fill-opacity="0" stroke="#000000" stroke-width="3"/>
    <path d="M322.102,167.101 L409.102,167.101" fill-opacity="0" stroke="#000000" stroke-width="3"/>
    <path d="M513.224,384.449 L431.614,384.449" fill-opacity="0" stroke="#000000" stroke-width="3"/>
    <path d="M769.163,384.449 L587.225,384.449" fill-opacity="0" stroke="#000000" stroke-width="3"/>
    <path d="M431.614,384.449 C414.948,382.24 410.378,198.101 410.378,198.101" fill-opacity="0" stroke="#000000" stroke-width="3"/>
    <path d="M459.9,384.449 L459.9,182.601" fill-opacity="0" stroke="#000000" stroke-width="3"/>
    <path d="M654.147,384.449 L654.147,182.601" fill-opacity="0" stroke="#000000" stroke-width="3"/>
    <path d="M734.379,384.449 L734.379,182.601" fill-opacity="0" stroke="#000000" stroke-width="3"/>
    <path d="M124.225,303.449 C276.092,301.533 320.33,244.171 322.102,198.101" fill-opacity="0" stroke="#000000" stroke-width="3"/>
    <g>
      <path d="M287.946,186.884 C285.884,186.884 284.212,185.212 284.212,183.15 C284.212,181.088 285.884,179.416 287.946,179.416 C290.009,179.416 291.68,181.088 291.68,183.15 C291.68,185.212 290.009,186.884 287.946,186.884 z" fill="#000000"/>
      <path d="M287.946,186.884 C285.884,186.884 284.212,185.212 284.212,183.15 C284.212,181.088 285.884,179.416 287.946,179.416 C290.009,179.416 291.68,181.088 291.68,183.15 C291.68,185.212 290.009,186.884 287.946,186.884 z" fill-opacity="0" stroke="#000000" stroke-width="3"/>
    </g>
    <g>
      <path d="M155.946,186.884 C153.884,186.884 152.212,185.212 152.212,183.15 C152.212,181.088 153.884,179.416 155.946,179.416 C158.009,179.416 159.68,181.088 159.68,183.15 C159.68,185.212 158.009,186.884 155.946,186.884 z" fill="#000000"/>
      <path d="M155.946,186.884 C153.884,186.884 152.212,185.212 152.212,183.15 C152.212,181.088 153.884,179.416 155.946,179.416 C158.009,179.416 159.68,181.088 159.68,183.15 C159.68,185.212 158.009,186.884 155.946,186.884 z" fill-opacity="0" stroke="#000000" stroke-width="3"/>
    </g>
    <g>
      <path d="M459.9,186.335 C457.837,186.335 456.165,184.663 456.165,182.601 C456.165,180.539 457.837,178.867 459.9,178.867 C461.962,178.867 463.634,180.539 463.634,182.601 C463.634,184.663 461.962,186.335 459.9,186.335 z" fill="#000000"/>
      <path d="M459.9,186.335 C457.837,186.335 456.165,184.663 456.165,182.601 C456.165,180.539 457.837,178.867 459.9,178.867 C461.962,178.867 463.634,180.539 463.634,182.601 C463.634,184.663 461.962,186.335 459.9,186.335 z" fill-opacity="0" stroke="#000000" stroke-width="3"/>
    </g>
    <g>
      <path d="M459.9,388.183 C457.837,388.183 456.165,386.511 456.165,384.449 C456.165,382.386 457.837,380.714 459.9,380.714 C461.962,380.714 463.634,382.386 463.634,384.449 C463.634,386.511 461.962,388.183 459.9,388.183 z" fill="#000000"/>
      <path d="M459.9,388.183 C457.837,388.183 456.165,386.511 456.165,384.449 C456.165,382.386 457.837,380.714 459.9,380.714 C461.962,380.714 463.634,382.386 463.634,384.449 C463.634,386.511 461.962,388.183 459.9,388.183 z" fill-opacity="0" stroke="#000000" stroke-width="3"/>
    </g>
    <g>
      <path d="M654.147,388.183 C652.085,388.183 650.413,386.511 650.413,384.449 C650.413,382.386 652.085,380.714 654.147,380.714 C656.209,380.714 657.881,382.386 657.881,384.449 C657.881,386.511 656.209,388.183 654.147,388.183 z" fill="#000000"/>
      <path d="M654.147,388.183 C652.085,388.183 650.413,386.511 650.413,384.449 C650.413,382.386 652.085,380.714 654.147,380.714 C656.209,380.714 657.881,382.386 657.881,384.449 C657.881,386.511 656.209,388.183 654.147,388.183 z" fill-opacity="0" stroke="#000000" stroke-width="3"/>
    </g>
    <g>
      <path d="M734.379,388.183 C732.317,388.183 730.645,386.511 730.645,384.449 C730.645,382.386 732.317,380.714 734.379,380.714 C736.442,380.714 738.113,382.386 738.113,384.449 C738.113,386.511 736.442,388.183 734.379,388.183 z" fill="#000000"/>
      <path d="M734.379,388.183 C732.317,388.183 730.645,386.511 730.645,384.449 C730.645,382.386 732.317,380.714 734.379,380.714 C736.442,380.714 738.113,382.386 738.113,384.449 C738.113,386.511 736.442,388.183 734.379,388.183 z" fill-opacity="0" stroke="#000000" stroke-width="3"/>
    </g>
    <g>
      <path d="M734.379,185.643 C732.317,185.643 730.645,183.971 730.645,181.909 C730.645,179.847 732.317,178.175 734.379,178.175 C736.442,178.175 738.114,179.847 738.114,181.909 C738.114,183.971 736.442,185.643 734.379,185.643 z" fill="#000000"/>
      <path d="M734.379,185.643 C732.317,185.643 730.645,183.971 730.645,181.909 C730.645,179.847 732.317,178.175 734.379,178.175 C736.442,178.175 738.114,179.847 738.114,181.909 C738.114,183.971 736.442,185.643 734.379,185.643 z" fill-opacity="0" stroke="#000000" stroke-width="3"/>
    </g>
    <g>
      <path d="M654.147,186.335 C652.085,186.335 650.413,184.663 650.413,182.601 C650.413,180.539 652.085,178.867 654.147,178.867 C656.209,178.867 657.881,180.539 657.881,182.601 C657.881,184.663 656.209,186.335 654.147,186.335 z" fill="#000000"/>
      <path d="M654.147,186.335 C652.085,186.335 650.413,184.663 650.413,182.601 C650.413,180.539 652.085,178.867 654.147,178.867 C656.209,178.867 657.881,180.539 657.881,182.601 C657.881,184.663 656.209,186.335 654.147,186.335 z" fill-opacity="0" stroke="#000000" stroke-width="3"/>
    </g>
    <g>
      <path d="M409.74,201.746 C407.678,201.746 406.006,200.074 406.006,198.012 C406.006,195.949 407.678,194.278 409.74,194.278 C411.802,194.278 413.474,195.949 413.474,198.012 C413.474,200.074 411.802,201.746 409.74,201.746 z" fill="#000000"/>
      <path d="M409.74,201.746 C407.678,201.746 406.006,200.074 406.006,198.012 C406.006,195.949 407.678,194.278 409.74,194.278 C411.802,194.278 413.474,195.949 413.474,198.012 C413.474,200.074 411.802,201.746 409.74,201.746 z" fill-opacity="0" stroke="#000000" stroke-width="3"/>
    </g>
    <g>
      <path d="M322.102,201.746 C320.04,201.746 318.368,200.074 318.368,198.012 C318.368,195.949 320.04,194.278 322.102,194.278 C324.164,194.278 325.836,195.949 325.836,198.012 C325.836,200.074 324.164,201.746 322.102,201.746 z" fill="#000000"/>
      <path d="M322.102,201.746 C320.04,201.746 318.368,200.074 318.368,198.012 C318.368,195.949 320.04,194.278 322.102,194.278 C324.164,194.278 325.836,195.949 325.836,198.012 C325.836,200.074 324.164,201.746 322.102,201.746 z" fill-opacity="0" stroke="#000000" stroke-width="3"/>
    </g>
    <g>
      <path d="M193.01,194.278 L193.01,172.022 L263.749,172.022 L263.749,194.278 L193.01,194.278 z" fill="#E6E6E6"/>
      <path d="M193.01,194.278 L193.01,172.022 L263.749,172.022 L263.749,194.278 L193.01,194.278 z" fill-opacity="0" stroke="#000000" stroke-width="2"/>
    </g>
    <g>
      <path d="M509.749,178.175 L542.314,178.175 L542.314,188.125 L509.749,188.125 L509.749,178.175 z" fill="#000000"/>
      <path d="M509.749,178.175 L542.314,178.175 L542.314,188.125 L509.749,188.125 L509.749,178.175 z" fill-opacity="0" stroke="#000000" stroke-width="3"/>
    </g>
    <path d="M155.946,182.601 L155.946,129.374" fill-opacity="0" stroke="#000000" stroke-width="3"/>
    <path d="M155.946,129.374 L287.946,129.374" fill-opacity="0" stroke="#000000" stroke-width="3"/>
    <path d="M287.946,129.374 L287.946,182.601" fill-opacity="0" stroke="#000000" stroke-width="3"/>
    <g>
      <path d="M438.092,328.062 L480.708,328.062 L480.708,345.062 L438.092,345.062 L438.092,328.062 z" fill="#E6E6E6"/>
      <g>
        <path d="M438.592,326.874 L481.208,326.874" fill="#E6E6E6"/>
        <path d="M438.592,326.874 L481.208,326.874" fill-opacity="0" stroke="#000000" stroke-width="12"/>
      </g>
      <g>
        <path d="M438.592,348.045 L481.208,348.045" fill="#E6E6E6"/>
        <path d="M438.592,348.045 L481.208,348.045" fill-opacity="0" stroke="#000000" stroke-width="12"/>
      </g>
    </g>
    <g>
      <path d="M712.571,277.713 L755.187,277.713 L755.187,294.713 L712.571,294.713 L712.571,277.713 z" fill="#E6E6E6"/>
      <g>
        <path d="M713.071,276.525 L755.687,276.525" fill="#E6E6E6"/>
        <path d="M713.071,276.525 L755.687,276.525" fill-opacity="0" stroke="#000000" stroke-width="12"/>
      </g>
      <g>
        <path d="M713.071,297.696 L755.687,297.696" fill="#E6E6E6"/>
        <path d="M713.071,297.696 L755.687,297.696" fill-opacity="0" stroke="#000000" stroke-width="12"/>
      </g>
    </g>
    <g>
      <g>
        <path d="M221.98,150.182 L221.98,107.566 L238.98,107.566 L238.98,150.182 L221.98,150.182 z" fill="#E6E6E6"/>
        <g>
          <path d="M220.792,150.682 L220.792,108.066" fill="#E6E6E6"/>
          <path d="M220.792,150.682 L220.792,108.066" fill-opacity="0" stroke="#000000" stroke-width="12"/>
        </g>
        <g>
          <path d="M241.963,150.682 L241.963,108.066" fill="#E6E6E6"/>
          <path d="M241.963,150.682 L241.963,108.066" fill-opacity="0" stroke="#000000" stroke-width="12"/>
        </g>
      </g>
      <g>
        <path d="M189.315,105.732 L267.444,153.017" fill="#E6E6E6"/>
        <g>
          <path d="M200.95,112.773 L267.444,153.017" fill-opacity="0" stroke="#000000" stroke-width="3"/>
          <path d="M203.124,109.18 L191.368,106.974 L198.775,116.367 z" fill="#000000" fill-opacity="1" stroke="#000000" stroke-width="3" stroke-opacity="1"/>
        </g>
      </g>
    </g>
    <g>
      <path d="M643.02,248.155 L665.275,248.155 L665.275,318.894 L643.02,318.894 L643.02,248.155 z" fill="#E6E6E6"/>
      <path d="M643.02,248.155 L665.275,248.155 L665.275,318.894 L643.02,318.894 L643.02,248.155 z" fill-opacity="0" stroke="#000000" stroke-width="2"/>
    </g>
    <g>
      <path d="M448.772,211.155 L471.027,211.155 L471.027,281.894 L448.772,281.894 L448.772,211.155 z" fill="#E6E6E6"/>
      <path d="M448.772,211.155 L471.027,211.155 L471.027,281.894 L448.772,281.894 L448.772,211.155 z" fill-opacity="0" stroke="#000000" stroke-width="2"/>
    </g>
    <g>
      <path d="M95.269,63.5 L172.304,109.896" fill-opacity="0" stroke="#DE787A" stroke-width="5"/>
      <path d="M172.304,109.896 L166.434,112.665 L181.556,115.468 L172.006,103.413 z" fill="#DE787A" fill-opacity="1" stroke="#DE787A" stroke-width="5" stroke-opacity="1"/>
    </g>
    <g>
      <path d="M581.269,483.5 L504.666,302.29" fill-opacity="0" stroke="#DE787A" stroke-width="5"/>
      <path d="M504.666,302.29 L511.042,303.503 L500.461,292.342 L501.094,307.708 z" fill="#DE787A" fill-opacity="1" stroke="#DE787A" stroke-width="5" stroke-opacity="1"/>
    </g>
    <g>
      <path d="M483.691,362.809 C498.061,366.95 481.689,280.541 499.682,283.604" fill-opacity="0" stroke="#000000" stroke-width="4"/>
      <path d="M483.691,204.241 C498.061,200.1 481.689,286.508 499.682,283.445" fill-opacity="0" stroke="#000000" stroke-width="4"/>
    </g>
    <g>
      <path d="M509.749,379.473 L542.314,379.473 L542.314,389.424 L509.749,389.424 L509.749,379.473 z" fill="#000000"/>
      <path d="M509.749,379.473 L542.314,379.473 L542.314,389.424 L509.749,389.424 L509.749,379.473 z" fill-opacity="0" stroke="#000000" stroke-width="3"/>
    </g>
  </g>
</svg>